Coordinates
version=1
nRows=14
nColumns=40
inDegrees=yes

Units are S.I. units (second, meters, Newtons, ...)
Angles are in degrees.

endheader
time	pelvis_tilt	pelvis_list	pelvis_rotation	pelvis_tx	pelvis_ty	pelvis_tz	hip_flexion_r	hip_adduction_r	hip_rotation_r	knee_angle_r	knee_angle_r_beta	ankle_angle_r	subtalar_angle_r	mtp_angle_r	hip_flexion_l	hip_adduction_l	hip_rotation_l	knee_angle_l	knee_angle_l_beta	ankle_angle_l	subtalar_angle_l	mtp_angle_l	lumbar_extension	lumbar_bending	lumbar_rotation	arm_flex_r	arm_add_r	arm_rot_r	elbow_flex_r	pro_sup_r	wrist_flex_r	wrist_dev_r	arm_flex_l	arm_add_l	arm_rot_l	elbow_flex_l	pro_sup_l	wrist_flex_l	wrist_dev_l
     40.49000000	     -3.34629637	     -5.13686646	     -1.14132656	      0.88618479	      0.93476091	      0.41722303	     30.67237216	     -5.83038043	     -8.71995199	     59.83846086	     59.83846086	      5.46082723	    -17.06262280	      3.58798074	     15.42628616	     -5.39837733	     -9.57258796	     20.84237515	     20.84237515	     12.04236584	     -6.54743569	     -4.09936948	    -10.65879495	      3.16328075	      0.94510090	      3.72519410	    -12.75701251	      2.09460307	     58.88907640	     45.58674824	      0.00000000	      0.00000000	     18.24630765	    -14.57716892	     -1.50286542	     40.28734903	     45.52767757	      0.00000000	      0.00000000
     40.50328571	     -3.52479604	     -5.12381404	     -1.36362810	      0.88461128	      0.93467096	      0.41667365	     31.36007301	     -5.75682754	     -8.66900247	     57.19644324	     57.19644324	      5.15638930	    -16.65317438	      2.23380083	     15.06643798	     -5.34801620	     -9.76894891	     20.59566495	     20.59566495	     12.18773335	     -6.53728936	     -4.43022384	    -10.54250041	      3.09435950	      0.98026399	      2.55328668	    -12.81186360	      1.29574167	     54.42014780	     45.75461061	      0.00000000	      0.00000000	     19.31929417	    -14.74236027	     -2.22331403	     41.43503800	     45.68181398	      0.00000000	      0.00000000
     40.51657143	     -3.66475489	     -5.11654298	     -1.59564344	      0.88315003	      0.93456894	      0.41619379	     31.82386781	     -5.62879323	     -8.63436887	     54.26372108	     54.26372108	      4.72642754	    -16.18750740	      0.87055632	     14.66985763	     -5.33306240	    -10.07601462	     20.37929698	     20.37929698	     12.40942822	     -6.34063996	     -4.74463435	    -10.49654332	      3.02771165	      0.93275665	      1.53909014	    -12.84400213	      0.39505274	     49.95164623	     45.92590030	      0.00000000	      0.00000000	     20.06897529	    -14.95935118	     -3.25609057	     43.30593594	     45.86414356	      0.00000000	      0.00000000
     40.52985714	     -3.78746005	     -5.10457707	     -1.82700293	      0.88177149	      0.93448922	      0.41574261	     32.11258650	     -5.48635260	     -8.65776280	     51.09047833	     51.09047833	      4.32252397	    -15.51484749	     -0.05527226	     14.23780988	     -5.29709396	    -10.34615489	     20.12847765	     20.12847765	     12.62957157	     -6.21250671	     -4.97308428	    -10.47647782	      2.96995597	      0.85640676	      0.70971335	    -12.87922206	     -0.57250642	     45.45044815	     46.09991833	      0.00000000	      0.00000000	     20.77268283	    -15.14586048	     -4.37949830	     45.14507217	     46.04776590	      0.00000000	      0.00000000
     40.54314286	     -3.93974944	     -5.12595944	     -2.01511923	      0.88051995	      0.93432844	      0.41532994	     32.28876924	     -5.29691989	     -8.78058391	     47.75615295	     47.75615295	      4.23444684	    -14.54125436	      0.23068352	     13.84136224	     -5.27546121	    -10.48871862	     19.87603545	     19.87603545	     12.89441825	     -6.16358368	     -5.06151704	    -10.41522983	      3.02683953	      0.90271353	     -1.09325033	    -13.41419578	     -0.68372166	     43.86374450	     46.14929777	      0.00000000	      0.00000000	     21.73007196	    -15.36664011	     -4.68448095	     46.11390192	     46.10113808	      0.00000000	      0.00000000
     40.55642857	     -3.96529885	     -5.11439946	     -2.26386920	      0.87946269	      0.93434017	      0.41502577	     32.18386351	     -5.11888243	     -8.98126432	     44.21224144	     44.21224144	      4.03454726	    -13.30415901	      0.41988599	     13.26285781	     -5.23142657	    -10.75633963	     19.57804309	     19.57804309	     13.14692122	     -6.01896162	     -5.20993150	    -10.51603133	      2.98890900	      1.37695292	     -2.62558905	    -13.92628543	     -1.01210197	     41.32477550	     46.24636922	      0.00000000	      0.00000000	     22.72883229	    -15.19152819	     -5.11807948	     47.60722637	     46.17261171	      0.00000000	      0.00000000
     40.56971429	     -4.08704070	     -4.97400689	     -2.50724442	      0.87848958	      0.93413072	      0.41491316	     32.06118666	     -5.01902907	     -9.18935500	     40.45828655	     40.45828655	      3.30510885	    -12.16218960	     -0.71593553	     12.78274020	     -5.07518467	    -11.12007004	     19.24480683	     19.24480683	     13.23568041	     -5.83046954	     -5.78227832	    -10.43115098	      2.73453535	      0.55272399	     -1.43912238	    -13.15887670	     -4.03963528	     33.63649820	     46.67618413	      0.00000000	      0.00000000	     22.28138721	    -15.66869576	     -7.45009844	     50.76282738	     46.45200624	      0.00000000	      0.00000000
     40.58300000	     -4.20560438	     -4.95101183	     -2.71100336	      0.87766649	      0.93395085	      0.41484883	     31.79880897	     -4.79262492	     -9.59569117	     36.61070980	     36.61070980	      2.97563873	    -10.55867171	     -0.22725571	     12.29162950	     -5.00682955	    -11.27530700	     18.91043039	     18.91043039	     13.46408949	     -5.79679514	     -5.85418625	    -10.38748631	      2.71278632	      0.71407876	     -3.03829967	    -13.69329659	     -4.32823688	     32.52393092	     46.72091580	      0.00000000	      0.00000000	     23.01788287	    -15.73750702	     -7.78896245	     51.78668917	     46.50514353	      0.00000000	      0.00000000
     40.59628571	     -4.40689723	     -4.85169534	     -2.95160106	      0.87692460	      0.93357327	      0.41499287	     31.55659340	     -4.56947223	    -10.00258258	     32.72944962	     32.72944962	      2.60580925	     -8.81135366	      0.31580707	     11.86823051	     -4.87403176	    -11.50333455	     18.54415125	     18.54415125	     13.68838370	     -5.72899561	     -5.97203443	    -10.23056299	      2.61384843	      0.86561078	     -4.49795352	    -14.08927090	     -4.59386104	     31.42230651	     46.76782282	      0.00000000	      0.00000000	     23.63424808	    -15.86359112	     -8.13693457	     52.84294872	     46.55670727	      0.00000000	      0.00000000
     40.60957143	     -4.35621172	     -4.68109401	     -3.16595439	      0.87659875	      0.93347099	      0.41510790	     30.93018513	     -4.51210709	    -10.81491050	     28.86776115	     28.86776115	      2.13938611	     -6.28508459	      0.27369084	     11.02851100	     -4.62026888	    -11.75330386	     17.92837800	     17.92837800	     13.60377141	     -5.68959035	     -6.84175520	    -10.38250075	      2.35557386	      0.44518954	     -4.48074446	    -13.99364868	     -7.70545714	     27.62886153	     47.09211515	      0.00000000	      0.00000000	     22.90221138	    -15.89840883	    -10.39788415	     56.81928500	     46.81528849	      0.00000000	      0.00000000
     40.62285714	     -4.42542775	     -4.58359844	     -3.35817409	      0.87631154	      0.93318081	      0.41546808	     30.36257369	     -4.22515398	    -11.48642278	     25.07053956	     25.07053956	      1.69239081	     -4.17670459	      1.10059551	     10.37979314	     -4.47102906	    -11.93557131	     17.46095665	     17.46095665	     13.84551831	     -5.56552544	     -6.97209423	    -10.34508139	      2.25181475	      0.69975388	     -5.92877140	    -14.48704311	     -8.02122102	     26.79597526	     47.13158414	      0.00000000	      0.00000000	     23.43855303	    -15.87945040	    -10.62641462	     57.76917607	     46.85474941	      0.00000000	      0.00000000
     40.63614286	     -4.50790646	     -4.43547622	     -3.56680115	      0.87625759	      0.93278974	      0.41598751	     29.81212845	     -3.96058725	    -12.23632629	     21.56459530	     21.56459530	      1.25599876	     -1.89954241	      2.05598637	      9.68424129	     -4.27041502	    -12.17075966	     16.90539746	     16.90539746	     14.04566706	     -5.37010475	     -7.18016649	    -10.23012629	      2.06383892	      0.92701569	     -7.29460499	    -14.87405047	     -8.34515517	     26.07107298	     47.16938635	      0.00000000	      0.00000000	     23.76059650	    -15.83611690	    -10.91469343	     58.97759519	     46.90028789	      0.00000000	      0.00000000
     40.64942857	     -4.49619749	     -4.23208786	     -3.76067272	      0.87645396	      0.93240790	      0.41660647	     29.20626217	     -3.77014546	    -13.11964304	     18.52241471	     18.52241471	      1.02624806	      0.55200544	      3.22268922	      8.81999684	     -3.99547317	    -12.45646136	     16.24547124	     16.24547124	     14.20537179	     -5.12204562	     -7.51833774	    -10.25548509	      1.81408615	      1.15441708	     -8.60788732	    -15.23641821	     -8.76547072	     25.45261355	     47.20965737	      0.00000000	      0.00000000	     23.88871450	    -15.81230718	    -11.32695206	     60.56839032	     46.95975036	      0.00000000	      0.00000000
     40.66271429	     -4.52805487	     -3.92110197	     -3.96978634	      0.87683705	      0.93182351	      0.41726865	     28.92538809	     -3.79111987	    -14.26710576	     16.46702368	     16.46702368	      1.53020455	      3.37632109	      5.86274143	      7.88649611	     -3.56811411	    -12.72586567	     15.33804401	     15.33804401	     13.99750738	     -5.00538752	     -8.55169876	    -10.22171791	      1.43230849	      0.94208957	     -9.60148837	    -15.45485302	     -9.98134044	     25.14502660	     47.28390451	      0.00000000	      0.00000000	     23.11860648	    -15.94622194	    -12.38897024	     63.62605884	     47.09327816	      0.00000000	      0.00000000
